<svg version="1.1" viewBox="0.0 0.0 768.0 768.0" fill="none" stroke="none" stroke-linecap="square" stroke-miterlimit="10" xmlns:xlink="http://www.w3.org/1999/xlink" xmlns="http://www.w3.org/2000/svg"><clipPath id="p.0"><path d="m0 0l768.0 0l0 768.0l-768.0 0l0 -768.0z" clip-rule="nonzero"/></clipPath><g clip-path="url(#p.0)"><path fill="#000000" fill-opacity="0.0" d="m0 0l768.0 0l0 768.0l-768.0 0z" fill-rule="evenodd"/><path fill="#20305c" d="m0 128.00256l0 0c0 -70.69386 57.308697 -128.00256 128.00256 -128.00256l511.99487 0l0 0c33.948364 0 66.50635 13.485946 90.511475 37.49108c24.005127 24.005138 37.49109 56.563087 37.49109 90.51148l0 511.99487c0 70.69385 -57.308716 128.00256 -128.00256 128.00256l-511.99487 0c-70.69386 0 -128.00256 -57.308716 -128.00256 -128.00256z" fill-rule="evenodd"/><path stroke="#20305c" stroke-width="1.0" stroke-linejoin="round" stroke-linecap="butt" d="m0 128.00256l0 0c0 -70.69386 57.308697 -128.00256 128.00256 -128.00256l511.99487 0l0 0c33.948364 0 66.50635 13.485946 90.511475 37.49108c24.005127 24.005138 37.49109 56.563087 37.49109 90.51148l0 511.99487c0 70.69385 -57.308716 128.00256 -128.00256 128.00256l-511.99487 0c-70.69386 0 -128.00256 -57.308716 -128.00256 -128.00256z" fill-rule="evenodd"/><path fill="#000000" fill-opacity="0.25" d="m64.0 64.0l296.0 0l0 288.0l-296.0 0z" fill-rule="evenodd"/><path fill="#2c7881" d="m424.0 80.0l264.0 0l0 256.0l-264.0 0z" fill-rule="evenodd"/><path stroke="#2c7881" stroke-width="1.0" stroke-linejoin="round" stroke-linecap="butt" d="m424.0 80.0l264.0 0l0 256.0l-264.0 0z" fill-rule="evenodd"/><path fill="#efe2c7" d="m80.0 416.0l264.0 0l0 256.0l-264.0 0z" fill-rule="evenodd"/><path stroke="#efe2c7" stroke-width="1.0" stroke-linejoin="round" stroke-linecap="butt" d="m80.0 416.0l264.0 0l0 256.0l-264.0 0z" fill-rule="evenodd"/><path fill="#a85457" d="m424.0 416.0l264.0 0l0 256.0l-264.0 0z" fill-rule="evenodd"/><path stroke="#a85457" stroke-width="1.0" stroke-linejoin="round" stroke-linecap="butt" d="m424.0 416.0l264.0 0l0 256.0l-264.0 0z" fill-rule="evenodd"/><path fill="#20305c" d="m80.0 80.0l264.0 0l0 256.0l-264.0 0z" fill-rule="evenodd"/><path stroke="#20305c" stroke-width="1.0" stroke-linejoin="round" stroke-linecap="butt" d="m80.0 80.0l264.0 0l0 256.0l-264.0 0z" fill-rule="evenodd"/></g></svg>